<mxfile host="65bd71144e">
    <diagram id="fiUxVhA0efIJVuodMUX5" name="Page-1">
        <mxGraphModel dx="629" dy="388" grid="1" gridSize="10" guides="1" tooltips="1" connect="1" arrows="1" fold="1" page="1" pageScale="1" pageWidth="850" pageHeight="1100" math="0" shadow="0">
            <root>
                <mxCell id="0"/>
                <mxCell id="1" parent="0"/>
                <mxCell id="2" value="" style="verticalLabelPosition=bottom;html=1;verticalAlign=top;align=center;strokeColor=#BD7000;fillColor=#f0a30a;shape=mxgraph.azure.computer;pointerEvents=1;fontColor=#000000;" vertex="1" parent="1">
                    <mxGeometry x="20" y="180" width="50" height="45" as="geometry"/>
                </mxCell>
                <mxCell id="3" value="" style="ellipse;shape=cloud;whiteSpace=wrap;html=1;fillColor=#f0a30a;fontColor=#000000;strokeColor=#BD7000;" vertex="1" parent="1">
                    <mxGeometry x="120" y="173.75" width="70" height="57.5" as="geometry"/>
                </mxCell>
                <mxCell id="11" value="" style="sketch=0;aspect=fixed;pointerEvents=1;shadow=0;dashed=0;html=1;strokeColor=#BD7000;labelPosition=center;verticalLabelPosition=bottom;verticalAlign=top;align=center;fillColor=#f0a30a;shape=mxgraph.mscae.enterprise.server_generic;fontColor=#000000;" vertex="1" parent="1">
                    <mxGeometry x="250" y="167.09" width="34" height="70.83" as="geometry"/>
                </mxCell>
                <mxCell id="12" value="" style="sketch=0;aspect=fixed;pointerEvents=1;shadow=0;dashed=0;html=1;strokeColor=#BD7000;labelPosition=center;verticalLabelPosition=bottom;verticalAlign=top;align=center;fillColor=#f0a30a;shape=mxgraph.mscae.enterprise.server_generic;fontColor=#000000;" vertex="1" parent="1">
                    <mxGeometry x="450" y="160" width="24" height="50" as="geometry"/>
                </mxCell>
                <mxCell id="13" value="" style="sketch=0;aspect=fixed;pointerEvents=1;shadow=0;dashed=0;html=1;strokeColor=#BD7000;labelPosition=center;verticalLabelPosition=bottom;verticalAlign=top;align=center;fillColor=#f0a30a;shape=mxgraph.mscae.enterprise.server_generic;fontColor=#000000;" vertex="1" parent="1">
                    <mxGeometry x="450" y="250" width="24" height="50" as="geometry"/>
                </mxCell>
                <mxCell id="18" value="" style="sketch=0;outlineConnect=0;fontColor=#000000;fillColor=#f0a30a;strokeColor=#BD7000;dashed=0;verticalLabelPosition=bottom;verticalAlign=top;align=center;html=1;fontSize=12;fontStyle=0;aspect=fixed;pointerEvents=1;shape=mxgraph.aws4.customer_gateway;" vertex="1" parent="1">
                    <mxGeometry x="442" y="70" width="40" height="40" as="geometry"/>
                </mxCell>
                <mxCell id="21" value="" style="outlineConnect=0;dashed=0;verticalLabelPosition=bottom;verticalAlign=top;align=center;html=1;shape=mxgraph.aws3.internet_3;fillColor=#f0a30a;fontColor=#000000;strokeColor=#BD7000;" vertex="1" parent="1">
                    <mxGeometry x="530" y="70" width="60" height="40" as="geometry"/>
                </mxCell>
                <mxCell id="22" value="" style="endArrow=classic;html=1;" edge="1" parent="1" source="2">
                    <mxGeometry width="50" height="50" relative="1" as="geometry">
                        <mxPoint x="300" y="220" as="sourcePoint"/>
                        <mxPoint x="130" y="200" as="targetPoint"/>
                    </mxGeometry>
                </mxCell>
                <mxCell id="23" value="" style="endArrow=classic;html=1;exitX=0.875;exitY=0.5;exitDx=0;exitDy=0;exitPerimeter=0;entryX=0;entryY=0.5;entryDx=0;entryDy=0;entryPerimeter=0;" edge="1" parent="1" source="3" target="11">
                    <mxGeometry width="50" height="50" relative="1" as="geometry">
                        <mxPoint x="300" y="220" as="sourcePoint"/>
                        <mxPoint x="350" y="170" as="targetPoint"/>
                    </mxGeometry>
                </mxCell>
                <mxCell id="24" value="" style="endArrow=none;html=1;" edge="1" parent="1">
                    <mxGeometry width="50" height="50" relative="1" as="geometry">
                        <mxPoint x="360" y="280" as="sourcePoint"/>
                        <mxPoint x="360" y="80" as="targetPoint"/>
                    </mxGeometry>
                </mxCell>
                <mxCell id="25" value="" style="endArrow=none;html=1;entryX=0;entryY=0.82;entryDx=0;entryDy=0;entryPerimeter=0;" edge="1" parent="1" target="12">
                    <mxGeometry width="50" height="50" relative="1" as="geometry">
                        <mxPoint x="360" y="200" as="sourcePoint"/>
                        <mxPoint x="350" y="170" as="targetPoint"/>
                    </mxGeometry>
                </mxCell>
                <mxCell id="26" value="" style="endArrow=none;html=1;" edge="1" parent="1">
                    <mxGeometry width="50" height="50" relative="1" as="geometry">
                        <mxPoint x="360" y="280" as="sourcePoint"/>
                        <mxPoint x="450" y="280" as="targetPoint"/>
                    </mxGeometry>
                </mxCell>
                <mxCell id="27" value="" style="endArrow=none;html=1;entryX=0.17;entryY=0.2;entryDx=0;entryDy=0;entryPerimeter=0;" edge="1" parent="1" target="21">
                    <mxGeometry width="50" height="50" relative="1" as="geometry">
                        <mxPoint x="360" y="80" as="sourcePoint"/>
                        <mxPoint x="350" y="170" as="targetPoint"/>
                    </mxGeometry>
                </mxCell>
                <mxCell id="28" value="" style="endArrow=none;html=1;exitX=1;exitY=0.5;exitDx=0;exitDy=0;exitPerimeter=0;" edge="1" parent="1" source="11">
                    <mxGeometry width="50" height="50" relative="1" as="geometry">
                        <mxPoint x="300" y="220" as="sourcePoint"/>
                        <mxPoint x="360" y="200" as="targetPoint"/>
                    </mxGeometry>
                </mxCell>
                <mxCell id="29" value="User" style="text;html=1;align=center;verticalAlign=middle;resizable=0;points=[];autosize=1;strokeColor=none;fillColor=none;" vertex="1" parent="1">
                    <mxGeometry x="20" y="231.25" width="50" height="30" as="geometry"/>
                </mxCell>
                <mxCell id="30" value="NAS&lt;br&gt;" style="text;html=1;align=center;verticalAlign=middle;resizable=0;points=[];autosize=1;strokeColor=none;fillColor=none;" vertex="1" parent="1">
                    <mxGeometry x="242" y="237.92" width="50" height="30" as="geometry"/>
                </mxCell>
                <mxCell id="31" value="RADIUS Server" style="text;html=1;align=center;verticalAlign=middle;resizable=0;points=[];autosize=1;strokeColor=none;fillColor=none;" vertex="1" parent="1">
                    <mxGeometry x="470" y="180" width="110" height="30" as="geometry"/>
                </mxCell>
                <mxCell id="32" value="ACS Server" style="text;html=1;align=center;verticalAlign=middle;resizable=0;points=[];autosize=1;strokeColor=none;fillColor=none;" vertex="1" parent="1">
                    <mxGeometry x="474" y="267.92" width="90" height="30" as="geometry"/>
                </mxCell>
                <mxCell id="33" value="Router&lt;br&gt;" style="text;html=1;align=center;verticalAlign=middle;resizable=0;points=[];autosize=1;strokeColor=none;fillColor=none;" vertex="1" parent="1">
                    <mxGeometry x="432" y="40" width="60" height="30" as="geometry"/>
                </mxCell>
                <mxCell id="34" value="Internet" style="text;html=1;align=center;verticalAlign=middle;resizable=0;points=[];autosize=1;strokeColor=none;fillColor=none;" vertex="1" parent="1">
                    <mxGeometry x="520" y="40" width="60" height="30" as="geometry"/>
                </mxCell>
                <mxCell id="35" value="Network" style="text;html=1;align=center;verticalAlign=middle;resizable=0;points=[];autosize=1;strokeColor=none;fillColor=none;" vertex="1" parent="1">
                    <mxGeometry x="120" y="187.5" width="70" height="30" as="geometry"/>
                </mxCell>
            </root>
        </mxGraphModel>
    </diagram>
</mxfile>